#!OML:ASF H:\Terrain\Patient Classification 1\Takeo\Monday\TakeoMonday.ASF
:FULLY-SPECIFIED
:DEGREES
295
root 10.886 17.6548 21.1539 -5.48153 -6.74232 0.406379
lowerback 6.66667 0.915841 1.52482
upperback 2.43704 1.31275 0.0531461
thorax -1.19193 0.658999 -0.8998
lowerneck -9.76243 2.14477 -0.225247
upperneck -1.82787 2.94298 -4.82814
head 1.15285 1.37163 -1.36254
rclavicle -1.26353e-014 8.74653e-015
rhumerus -17.0213 12.2355 -88.5672
rradius 40.6439
rwrist -13.9062
rhand -24.9678 18.6169
rfingers 7.12502
rthumb 1.54266 -11.3573
lclavicle -1.26353e-014 8.74653e-015
lhumerus -36.1586 14.8841 83.1895
lradius 29.0665
lwrist 20.3707
lhand -21.5532 21.1668
lfingers 7.12502
lthumb 4.84022 51.0916
rfemur -1.58622 6.67281 21.0296
rtibia 65.6774
rfoot 14.0318 -12.465
rtoes -33.42
lfemur -15.3391 -1.13678 -24.5806
ltibia 34.9223
lfoot -12.3863 9.78801
ltoes 0.271166
296
root 10.9083 17.6742 21.3133 -5.39046 -6.20023 1.51047
lowerback 6.19889 0.82005 0.522806
upperback 2.63585 1.11415 -0.292604
thorax -0.745906 0.560167 -0.668292
lowerneck -9.94749 2.08269 -0.371872
upperneck -2.01638 2.86675 -4.55273
head 1.11299 1.3408 -1.2515
rclavicle 1.12997e-014 5.96354e-015
rhumerus -17.048 11.3867 -88.589
rradius 38.6225
rwrist -13.0673
rhand -21.927 20.1645
rfingers 7.12502
rthumb 4.47922 -9.76814
lclavicle 1.12997e-014 5.96354e-015
lhumerus -35.2625 13.85 83.8541
lradius 30.357
lwrist 21.3049
lhand -21.8707 21.2661
lfingers 7.12502
lthumb 4.53362 51.1976
rfemur -3.34433 6.00377 19.5687
rtibia 67.5074
rfoot 12.2681 -13.6113
rtoes -32.7013
lfemur -14.5435 -1.34577 -26.0498
ltibia 34.2959
lfoot -12.7201 9.6922
ltoes 0.0739399
297
root 10.9217 17.6938 21.4603 -5.49106 -5.9206 2.36235
lowerback 6.5261 0.735758 -0.453338
upperback 2.53277 0.941122 -0.44752
thorax -1.04934 0.468604 -0.273921
lowerneck -9.95442 2.0167 -0.0899329
upperneck -1.85841 2.76239 -5.01503
head 1.1789 1.27502 -1.45232
rclavicle 1.4971e-014 -3.37934e-015
rhumerus -17.5908 11.3759 -88.7584
rradius 37.2733
rwrist -12.5061
rhand -21.9223 20.0621
rfingers 7.12502
rthumb 4.48377 -9.87044
lclavicle 1.4971e-014 -3.37934e-015
lhumerus -34.955 13.2641 84.2073
lradius 31.583
lwrist 21.3594
lhand -22.3797 20.4441
lfingers 7.12502
lthumb 4.04209 50.3855
rfemur -5.18126 5.84582 18.5468
rtibia 69.2366
rfoot 10.2978 -15.3364
rtoes -29.7856
lfemur -13.3662 -1.35127 -27.1636
ltibia 33.2147
lfoot -12.5542 9.59454
ltoes 0.271089
298
root 10.9388 17.7118 21.6149 -5.34183 -5.60573 2.37788
lowerback 6.64185 0.586005 -0.528404
upperback 2.30894 0.737064 -0.338741
thorax -1.34643 0.366683 -0.108006
lowerneck -9.4572 2.085 -0.155093
upperneck -1.93649 2.85205 -5.21992
head 1.07342 1.3245 -1.50572
rclavicle 5.34234e-015 3.18055e-015
rhumerus -18.3421 10.9573 -88.8662
rradius 35.9255
rwrist -11.7615
rhand -21.7377 19.8231
rfingers 7.12502
rthumb 4.66207 -10.1056
lclavicle 5.34234e-015 3.18055e-015
lhumerus -34.8355 12.6229 84.6495
lradius 32.7393
lwrist 21.3453
lhand -22.5072 20.0288
lfingers 7.12502
lthumb 3.91898 49.9725
rfemur -7.00679 5.75269 18.4725
rtibia 70.5415
rfoot 8.24063 -17.2341
rtoes -25.8584
lfemur -12.4249 -1.42377 -27.3547
ltibia 32.2148
lfoot -12.4926 9.34321
ltoes 0.931022
299
root 10.9719 17.7236 21.7928 -5.22632 -4.90507 2.39185
lowerback 6.17563 0.315343 -0.303691
upperback 2.40254 0.394457 -0.357819
thorax -0.988822 0.19612 -0.224162
lowerneck -9.37493 2.13057 -0.0171144
upperneck -1.9323 2.90129 -5.47716
head 1.07081 1.34475 -1.61105
rclavicle 1.56543e-015 6.55989e-015
rhumerus -18.8883 10.3424 -88.9074
rradius 34.8458
rwrist -11.1294
rhand -21.5514 19.4891
rfingers 7.12502
rthumb 4.84198 -10.4356
lclavicle 1.56543e-015 6.55989e-015
lhumerus -34.2167 11.5377 85.2113
lradius 33.8156
lwrist 21.9646
lhand -21.8559 20.9538
lfingers 7.12502
lthumb 4.54789 50.885
rfemur -8.12579 4.98715 18.2284
rtibia 71.4772
rfoot 5.90349 -18.4821
rtoes -23.1027
lfemur -11.3887 -1.74429 -27.6708
ltibia 31.3437
lfoot -12.7626 9.03786
ltoes 0.567122
300
root 10.9988 17.7471 21.9622 -5.23143 -4.21078 2.5812
lowerback 6.23167 0.0292796 -0.50811
upperback 2.25788 0.00142483 -0.330838
thorax -1.16918 -0.000555337 -0.0546844
lowerneck -9.50436 2.16312 0.193015
upperneck -1.35623 2.95985 -5.82476
head 1.29393 1.35268 -1.75779
rclavicle 8.64713e-015 -2.78299e-015
rhumerus -19.9507 10.0651 -89.0053
rradius 33.9117
rwrist -10.954
rhand -21.6437 19.4031
rfingers 7.12502
rthumb 4.7528 -10.5236
lclavicle 8.64713e-015 -2.78299e-015
lhumerus -33.9634 10.4732 85.6065
lradius 35.0808
lwrist 22.8128
lhand -20.9656 22.7366
lfingers 7.12502
lthumb 5.40754 52.6476
rfemur -9.2252 4.39457 17.8185
rtibia 72.2059
rfoot 3.25403 -19.439
rtoes -18.2203
lfemur -10.3672 -2.07458 -28.1458
ltibia 30.6879
lfoot -13.0821 8.79065
ltoes 0.405348
301
root 11.0032 17.7698 22.1076 -5.22153 -3.81459 2.82532
lowerback 6.71931 -0.0674876 -1.04386
upperback 1.92702 -0.166184 -0.219479
thorax -1.778 -0.0818686 0.37387
lowerneck -8.84159 2.28723 -0.289291
upperneck -1.31382 3.15993 -5.52223
head 1.17985 1.46942 -1.57102
rclavicle -1.20886e-014 0
rhumerus -21.1787 9.66401 -89.0318
rradius 32.9542
rwrist -10.8703
rhand -22.2246 19.2749
rfingers 7.12502
rthumb 4.19184 -10.6636
lclavicle -1.20886e-014 0
lhumerus -33.9119 9.45403 86.0542
lradius 36.4749
lwrist 23.9063
lhand -20.7722 24.2867
lfingers 7.12502
lthumb 5.59426 54.1928
rfemur -10.7912 4.32647 17.615
rtibia 72.8085
rfoot 1.3696 -20.2671
rtoes -13.3308
lfemur -9.5722 -2.10005 -28.5303
ltibia 30.1471
lfoot -13.1305 8.67596
ltoes -0.347796
302
root 10.9977 17.7594 22.2538 -5.41272 -3.63854 3.08716
lowerback 6.89474 0.0479318 -1.51713
upperback 2.06969 -0.045166 -0.170063
thorax -1.72963 -0.0219319 0.680649
lowerneck -8.47812 2.21809 -0.580756
upperneck -1.53564 3.07689 -5.48669
head 1.03633 1.4401 -1.51464
rclavicle 3.10601e-015 1.63003e-014
rhumerus -21.7064 8.88685 -88.7945
rradius 32.0852
rwrist -10.5207
rhand -22.6205 18.2221
rfingers 7.12502
rthumb 3.80958 -11.7236
lclavicle 3.10601e-015 1.63003e-014
lhumerus -33.1381 8.04287 86.8048
lradius 37.4539
lwrist 24.7517
lhand -21.0663 24.2469
lfingers 7.12502
lthumb 5.31029 54.1604
rfemur -12.1624 4.40269 17.5585
rtibia 73.289
rfoot 0.320004 -20.9337
rtoes -12.4246
lfemur -8.67229 -1.88971 -28.888
ltibia 29.7822
lfoot -13.2396 8.68165
ltoes -1.8933
303
root 11.0011 17.7632 22.4228 -5.59834 -3.37741 2.92918
lowerback 6.63901 0.0551369 -1.41649
upperback 2.41998 -0.0200567 -0.113073
thorax -1.22771 -0.0147147 0.68043
lowerneck -8.85644 1.91433 -0.567367
upperneck -1.452 2.68124 -5.33651
head 1.11528 1.23803 -1.48125
rclavicle -1.23868e-014 -3.18055e-015
rhumerus -22.1081 7.92329 -88.6353
rradius 31.2384
rwrist -10.2605
rhand -22.3679 17.5835
rfingers 7.12502
rthumb 4.05347 -12.3577
lclavicle -1.23868e-014 -3.18055e-015
lhumerus -32.2112 6.50721 87.4405
lradius 38.2446
lwrist 25.2894
lhand -21.7048 22.6324
lfingers 7.12502
lthumb 4.69383 52.5604
rfemur -13.1444 4.31826 17.9091
rtibia 73.4029
rfoot -0.117654 -21.2111
rtoes -15.7595
lfemur -7.76479 -1.87216 -28.8302
ltibia 29.7288
lfoot -13.8006 8.57651
ltoes -3.56579
304
root 11.0062 17.7853 22.5803 -5.50696 -3.04151 2.30439
lowerback 6.29395 -0.0418062 -0.917456
upperback 2.66325 -0.109286 0.0992014
thorax -0.784859 -0.0614474 0.624189
lowerneck -8.74927 1.94038 -0.186565
upperneck -1.74424 2.66796 -5.68289
head 1.01777 1.23172 -1.65989
rclavicle 1.61513e-016 9.54166e-015
rhumerus -22.5521 7.26211 -88.5285
rradius 30.202
rwrist -10.7013
rhand -22.1947 18.203
rfingers 7.12502
rthumb 4.22072 -11.735
lclavicle 1.61513e-016 9.54166e-015
lhumerus -31.3042 5.35119 87.8971
lradius 39.3787
lwrist 25.9037
lhand -22.3467 21.7142
lfingers 7.12502
lthumb 4.07394 51.655
rfemur -14.409 4.32706 18.7452
rtibia 73.2736
rfoot -0.565898 -21.311
rtoes -17.9428
lfemur -7.41968 -2.06416 -28.2348
ltibia 30.0709
lfoot -14.5064 8.36457
ltoes -4.3965
305
root 11.0083 17.78 22.7218 -5.38095 -2.65325 1.95705
lowerback 6.2728 -0.156908 -0.833669
upperback 2.67871 -0.254377 0.320968
thorax -0.753987 -0.134653 0.814703
lowerneck -8.33241 2.02654 -0.214267
upperneck -2.03723 2.76287 -5.67174
head 0.854534 1.29225 -1.65016
rclavicle 6.90777e-015 2.38542e-015
rhumerus -23.1716 7.21822 -88.5001
rradius 28.9577
rwrist -11.5856
rhand -22.7059 18.9443
rfingers 7.12502
rthumb 3.72713 -11.0028
lclavicle 6.90777e-015 2.38542e-015
lhumerus -30.7008 4.72268 88.1877
lradius 40.8254
lwrist 25.8423
lhand -22.4612 21.9441
lfingers 7.12502
lthumb 3.9634 51.887
rfemur -15.7794 4.35622 19.2694
rtibia 73.0333
rfoot -1.11044 -21.3325
rtoes -18.9282
lfemur -7.23972 -2.18773 -27.9299
ltibia 30.4208
lfoot -14.9572 8.08956
ltoes -4.22633
306
root 11.0192 17.7427 22.8629 -5.1674 -2.02762 2.03239
lowerback 6.35351 -0.341214 -0.981119
upperback 2.49836 -0.508856 0.328376
thorax -0.977583 -0.260501 0.923845
lowerneck -8.51192 1.93964 -0.0932313
upperneck -1.63165 2.66048 -5.71003
head 1.01508 1.2287 -1.68642
rclavicle -4.00054e-015 1.59028e-015
rhumerus -23.9816 7.25286 -88.6727
rradius 27.5699
rwrist -12.3138
rhand -23.4631 19.2233
rfingers 7.12502
rthumb 2.99592 -10.7354
lclavicle -4.00054e-015 1.59028e-015
lhumerus -30.4271 3.97129 88.3312
lradius 42.1859
lwrist 25.5926
lhand -22.3194 22.2467
lfingers 7.12502
lthumb 4.10034 52.187
rfemur -17.2157 4.05137 19.164
rtibia 72.716
rfoot -1.78568 -21.1288
rtoes -20.7767
lfemur -7.00665 -2.37878 -28.1594
ltibia 30.5126
lfoot -15.202 7.84896
ltoes -4.74141
307
root 11.0344 17.7352 23.0193 -5.11623 -1.33108 2.32561
lowerback 6.48079 -0.472321 -1.2061
upperback 2.44029 -0.699446 0.242035
thorax -1.10177 -0.355084 0.976566
lowerneck -8.94987 1.8101 -0.186432
upperneck -1.10295 2.53046 -5.62598
head 1.25355 1.14788 -1.64679
rclavicle 3.80176e-015 -3.18055e-015
rhumerus -24.7417 5.69876 -88.403
rradius 26.4914
rwrist -11.621
rhand -23.4851 18.98
rfingers 7.12502
rthumb 2.97459 -10.979
lclavicle 3.80176e-015 -3.18055e-015
lhumerus -30.0299 2.85327 88.6153
lradius 43.3512
lwrist 25.6848
lhand -22.0098 21.949
lfingers 7.12502
lthumb 4.39932 51.8833
rfemur -18.3643 3.73662 18.6998
rtibia 72.1184
rfoot -2.8839 -20.663
rtoes -20.8357
lfemur -6.42703 -2.66103 -28.6643
ltibia 30.5042
lfoot -15.5968 7.78729
ltoes -5.71229
308
root 11.046 17.7581 23.2001 -5.36414 -0.822342 2.66305
lowerback 6.5305 -0.550649 -1.63456
upperback 2.5784 -0.829477 0.251246
thorax -0.977232 -0.423684 1.23545
lowerneck -9.22356 1.6933 -0.374904
upperneck -0.7813 2.41342 -5.5127
head 1.39631 1.08119 -1.58174
rclavicle 6.31141e-015 3.97569e-016
rhumerus -25.5561 2.93181 -87.5816
rradius 25.9267
rwrist -9.89591
rhand -22.5278 18.4675
rfingers 7.12502
rthumb 3.89915 -11.4766
lclavicle 6.31141e-015 3.97569e-016
lhumerus -29.6379 2.16237 88.9524
lradius 44.5988
lwrist 25.8256
lhand -22.0499 18.5356
lfingers 7.12502
lthumb 4.36059 48.4707
rfemur -18.8684 3.72216 18.2707
rtibia 71.1262
rfoot -4.18923 -19.9468
rtoes -21.3617
lfemur -5.24858 -2.79104 -29.1863
ltibia 30.2421
lfoot -16.2172 7.69768
ltoes -5.86841
309
root 11.0566 17.7593 23.3603 -5.24662 -0.493655 2.2856
lowerback 6.18561 -0.661902 -1.40886
upperback 2.76539 -0.955003 0.476658
thorax -0.589226 -0.490813 1.34252
lowerneck -9.44928 1.66204 -0.397622
upperneck -0.743004 2.38102 -5.5192
head 1.44731 1.06067 -1.58074
rclavicle -4.02539e-015 -7.95139e-016
rhumerus -25.9756 1.28376 -86.9288
rradius 25.1062
rwrist -9.13722
rhand -21.5281 18.1038
rfingers 7.12502
rthumb 4.8644 -11.8204
lclavicle -4.02539e-015 -7.95139e-016
lhumerus -28.9187 1.79655 89.1886
lradius 45.9687
lwrist 26.3222
lhand -22.3167 20.2572
lfingers 7.12502
lthumb 4.103 50.1975
rfemur -19.7378 3.91331 18.7261
rtibia 69.8772
rfoot -4.9771 -19.3691
rtoes -23.7273
lfemur -4.41459 -2.89011 -28.8358
ltibia 29.5245
lfoot -16.5469 7.40313
ltoes -4.91896
